# xmcd
#
# Track frame offsets:
#	150
#	14632
#	27410
#	45620
#	58036
#	68318
#	80996
#	98806
#	122102
#	138093
#	150927
#	168520
#	188654
#	201990
#	214461
#
# Disc length: 3044 seconds
#
# Revision: 0
# Processed by: cddbd v1.5.2PL0 Copyright (c) Steve Scherf et al.
# Submitted via: audiograbber 1.83.01
#
DISCID=d00be20f
DTITLE=Marty Robbins - Chartbuster Karaoke
DYEAR=2007
DGENRE=Country
TTITLE0=Devil Woman
TTITLE1=White Sport Coat (And a Pink Carnation)
TTITLE2=Big Iron
TTITLE3=Ribbon of Darkness
TTITLE4=Ruby Ann
TTITLE5=Streets of Laredo
TTITLE6=Don't Worry
TTITLE7=El Paso
TTITLE8=I Walk Alone
TTITLE9=Singing the Blues
TTITLE10=My Woman, My Woman, My Wife
TTITLE11=El Paso City
TTITLE12=I'll Go on Alone
TTITLE13=Begging to You
TTITLE14=Tonight Carmen
EXTD=
EXTT0=
EXTT1=
EXTT2=
EXTT3=
EXTT4=
EXTT5=
EXTT6=
EXTT7=
EXTT8=
EXTT9=
EXTT10=
EXTT11=
EXTT12=
EXTT13=
EXTT14=
PLAYORDER=
